<svg width="1200" height="498" viewBox="0 0 1200 498" fill="none" xmlns="http://www.w3.org/2000/svg">
<path d="M24 3H1176C1187.6 3 1197 12.402 1197 24V494H3V24C3 12.402 12.402 3 24 3Z" fill="#FFF9F0" stroke="#EDDEC5" stroke-width="6"/>
<line x1="445.375" y1="497.02" x2="445.375" y2="1.9794" stroke="#EEDEC5"/>
<circle cx="1115" cy="83" r="40" fill="#007C86" fill-opacity="0.2"/>
<rect x="66" y="69" width="251" height="54" rx="6" fill="#F6F0DB"/>
<rect x="67" y="70" width="249" height="52" rx="5" stroke="#6D6D6D" stroke-opacity="0.4" stroke-width="2"/>
<rect x="487" y="191" width="634" height="239" rx="8" fill="#EEDEC5"/>
<rect x="487" y="55" width="327" height="41" rx="8" fill="#EEDEC5"/>
<rect x="66" y="239" width="327" height="108" rx="8" fill="#EEDEC5"/>
<rect x="66" y="383" width="327" height="41" rx="8" fill="#EEDEC5"/>
<rect x="66" y="439" width="327" height="41" rx="8" fill="#EEDEC5"/>
<rect x="487" y="107" width="164" height="30" rx="4" fill="#EEDEC5"/>
<rect x="66" y="176" width="164" height="30" rx="4" fill="#EEDEC5"/>
<rect y="4" width="1200" height="493" fill="url(#paint0_linear_799_1741)"/>
<circle cx="1114" cy="82" r="32" fill="#034951"/>
<path d="M1108.59 73.152V90H1104.49V73.152H1108.59ZM1120.16 90L1116.65 83.64H1115.67V90H1111.57V73.152H1118.45C1119.78 73.152 1120.91 73.384 1121.84 73.848C1122.78 74.312 1123.49 74.952 1123.95 75.768C1124.41 76.568 1124.65 77.464 1124.65 78.456C1124.65 79.576 1124.33 80.576 1123.69 81.456C1123.06 82.336 1122.13 82.96 1120.9 83.328L1124.79 90H1120.16ZM1115.67 80.736H1118.21C1118.97 80.736 1119.53 80.552 1119.89 80.184C1120.28 79.816 1120.47 79.296 1120.47 78.624C1120.47 77.984 1120.28 77.48 1119.89 77.112C1119.53 76.744 1118.97 76.56 1118.21 76.56H1115.67V80.736Z" fill="white"/>
<rect x="330" y="69" width="55.6582" height="53.25" rx="6" fill="#034951"/>
<path fill-rule="evenodd" clip-rule="evenodd" d="M362.267 98.8195C362.245 98.7971 362.242 98.7614 362.261 98.7362C364.432 95.8734 364.221 91.7583 361.629 89.1386C358.807 86.2871 354.233 86.2871 351.411 89.1386C348.59 91.9902 348.59 96.6134 351.411 99.4649C354.003 102.085 358.075 102.298 360.908 100.104C360.932 100.085 360.968 100.088 360.99 100.11L364.822 103.983C365.174 104.339 365.746 104.339 366.099 103.983C366.452 103.626 366.452 103.048 366.099 102.692L362.267 98.8195ZM360.351 90.4294C362.468 92.5681 362.468 96.0355 360.351 98.1741C358.235 100.313 354.804 100.313 352.688 98.1741C350.572 96.0355 350.572 92.5681 352.688 90.4294C354.804 88.2908 358.235 88.2908 360.351 90.4294Z" fill="white" stroke="white"/>
<defs>
<linearGradient id="paint0_linear_799_1741" x1="600" y1="4" x2="600" y2="497" gradientUnits="userSpaceOnUse">
<stop stop-color="#FDFFEF" stop-opacity="0"/>
<stop offset="1" stop-color="#FDFFEF"/>
</linearGradient>
</defs>
</svg>
