<svg width="1332" height="973" viewBox="0 0 1332 973" fill="none" xmlns="http://www.w3.org/2000/svg">
<path d="M253 3H991C1002.6 3 1012 12.402 1012 24V970H232V24C232 12.402 241.402 3 253 3Z" fill="#FFF9F0" stroke="#EDDEC5" stroke-width="6"/>
<circle cx="944" cy="83" r="40" fill="#034951" fill-opacity="0.2"/>
<rect x="333" y="228" width="479" height="70" rx="11" fill="#F6F0DB" stroke="#937F62" stroke-width="2"/>
<rect x="332" y="352" width="278" height="197" rx="8" fill="#ECDBC1"/>
<rect x="332" y="62" width="327" height="41" rx="8" fill="#ECDBC1"/>
<rect x="332" y="114" width="164" height="30" rx="4" fill="#ECDBC1"/>
<rect x="332" y="573" width="278" height="197" rx="8" fill="#ECDBC1"/>
<rect x="633" y="573" width="278" height="197" rx="8" fill="#ECDBC1"/>
<rect x="633" y="352" width="278" height="197" rx="8" fill="#ECDBC1"/>
<g filter="url(#filter0_d_788_1664)">
<rect x="117" y="401" width="456" height="100" rx="8" fill="white"/>
</g>
<path fill-rule="evenodd" clip-rule="evenodd" d="M173.002 458.537C177.269 453.057 176.884 445.129 171.846 440.091C166.391 434.636 157.546 434.636 152.091 440.091C146.636 445.546 146.636 454.391 152.091 459.846C157.129 464.884 165.057 465.269 170.538 461.002C170.561 461.029 170.586 461.055 170.611 461.081L178.019 468.488C178.701 469.171 179.807 469.171 180.489 468.488C181.17 467.807 181.17 466.701 180.489 466.019L173.081 458.611C173.055 458.586 173.029 458.561 173.002 458.537ZM169.377 442.561C173.468 446.652 173.468 453.285 169.377 457.377C165.285 461.468 158.652 461.468 154.561 457.377C150.469 453.285 150.469 446.652 154.561 442.561C158.652 438.469 165.285 438.469 169.377 442.561Z" fill="black" fill-opacity="0.2"/>
<path d="M216.877 465V442.482H208.879V439.635H228.039V442.482H220.041V465H216.877ZM231.062 465V439.635H234.121V449.637H234.191C234.684 448.605 235.416 447.803 236.389 447.229C237.361 446.654 238.527 446.367 239.887 446.367C241.188 446.367 242.324 446.684 243.297 447.316C244.281 447.938 245.049 448.805 245.6 449.918C246.15 451.031 246.426 452.326 246.426 453.803V465H243.367V454.33C243.367 452.678 242.969 451.389 242.172 450.463C241.375 449.537 240.262 449.074 238.832 449.074C237.895 449.074 237.068 449.297 236.354 449.742C235.65 450.188 235.1 450.803 234.701 451.588C234.314 452.373 234.121 453.287 234.121 454.33V465H231.062ZM257.834 465.352C256.088 465.352 254.582 464.965 253.316 464.191C252.062 463.418 251.096 462.328 250.416 460.922C249.748 459.504 249.414 457.84 249.414 455.93V455.912C249.414 454.025 249.754 452.367 250.434 450.938C251.113 449.496 252.068 448.377 253.299 447.58C254.529 446.771 255.977 446.367 257.641 446.367C259.305 446.367 260.734 446.754 261.93 447.527C263.137 448.289 264.062 449.361 264.707 450.744C265.352 452.127 265.674 453.732 265.674 455.561V456.686H250.943V454.295H264.162L262.615 456.51V455.332C262.615 453.914 262.398 452.742 261.965 451.816C261.543 450.891 260.957 450.205 260.207 449.76C259.457 449.303 258.596 449.074 257.623 449.074C256.65 449.074 255.777 449.314 255.004 449.795C254.23 450.264 253.621 450.967 253.176 451.904C252.73 452.83 252.508 453.973 252.508 455.332V456.51C252.508 457.799 252.725 458.9 253.158 459.814C253.604 460.729 254.23 461.432 255.039 461.924C255.848 462.404 256.803 462.645 257.904 462.645C258.678 462.645 259.369 462.527 259.979 462.293C260.588 462.059 261.098 461.736 261.508 461.326C261.918 460.916 262.211 460.447 262.387 459.92L262.439 459.762H265.445L265.41 459.938C265.258 460.688 264.965 461.391 264.531 462.047C264.109 462.703 263.564 463.283 262.896 463.787C262.229 464.279 261.467 464.666 260.611 464.947C259.756 465.217 258.83 465.352 257.834 465.352ZM284.922 465.422C283.094 465.422 281.482 465.141 280.088 464.578C278.705 464.004 277.604 463.189 276.783 462.135C275.975 461.08 275.518 459.832 275.412 458.391L275.395 458.145H278.559L278.594 458.391C278.723 459.234 279.068 459.967 279.631 460.588C280.193 461.197 280.938 461.672 281.863 462.012C282.801 462.34 283.879 462.504 285.098 462.504C286.316 462.504 287.371 462.334 288.262 461.994C289.152 461.643 289.838 461.145 290.318 460.5C290.811 459.855 291.057 459.1 291.057 458.232V458.215C291.057 457.102 290.67 456.211 289.896 455.543C289.123 454.875 287.863 454.348 286.117 453.961L283.305 453.346C280.832 452.795 278.998 451.951 277.803 450.814C276.619 449.666 276.027 448.166 276.027 446.314V446.297C276.039 444.902 276.426 443.678 277.188 442.623C277.949 441.557 278.998 440.725 280.334 440.127C281.682 439.518 283.223 439.213 284.957 439.213C286.609 439.213 288.086 439.512 289.387 440.109C290.688 440.695 291.725 441.516 292.498 442.57C293.283 443.625 293.723 444.844 293.816 446.227L293.834 446.49H290.67L290.635 446.244C290.506 445.377 290.189 444.639 289.686 444.029C289.182 443.42 288.52 442.951 287.699 442.623C286.891 442.295 285.947 442.131 284.869 442.131C283.744 442.131 282.76 442.301 281.916 442.641C281.072 442.98 280.416 443.455 279.947 444.064C279.49 444.674 279.262 445.389 279.262 446.209V446.227C279.262 447.258 279.654 448.107 280.439 448.775C281.225 449.443 282.443 449.959 284.096 450.322L286.908 450.938C288.643 451.312 290.049 451.811 291.127 452.432C292.217 453.053 293.014 453.826 293.518 454.752C294.033 455.666 294.291 456.768 294.291 458.057V458.074C294.291 459.574 293.91 460.875 293.148 461.977C292.398 463.078 291.32 463.928 289.914 464.525C288.52 465.123 286.855 465.422 284.922 465.422ZM303.467 465.352C301.791 465.352 300.537 464.953 299.705 464.156C298.873 463.359 298.457 462.088 298.457 460.342V449.25H295.785V446.719H298.457V441.779H301.621V446.719H305.102V449.25H301.621V460.324C301.621 461.297 301.832 461.959 302.254 462.311C302.676 462.65 303.297 462.82 304.117 462.82C304.305 462.82 304.48 462.814 304.645 462.803C304.82 462.779 304.973 462.762 305.102 462.75V465.229C304.914 465.252 304.668 465.275 304.363 465.299C304.07 465.334 303.771 465.352 303.467 465.352ZM314.629 465.352C313.293 465.352 312.15 465.076 311.201 464.525C310.264 463.975 309.543 463.195 309.039 462.188C308.547 461.168 308.301 459.967 308.301 458.584V446.719H311.359V458.039C311.359 459.527 311.705 460.67 312.396 461.467C313.1 462.252 314.154 462.645 315.561 462.645C316.287 462.645 316.938 462.521 317.512 462.275C318.098 462.029 318.602 461.684 319.023 461.238C319.445 460.781 319.768 460.236 319.99 459.604C320.213 458.959 320.324 458.25 320.324 457.477V446.719H323.383V465H320.324V462.398H320.254C319.926 462.961 319.498 463.465 318.971 463.91C318.455 464.355 317.834 464.707 317.107 464.965C316.381 465.223 315.555 465.352 314.629 465.352ZM334.246 465.352C332.688 465.352 331.322 464.965 330.15 464.191C328.99 463.406 328.088 462.305 327.443 460.887C326.799 459.457 326.477 457.781 326.477 455.859V455.842C326.477 453.92 326.799 452.25 327.443 450.832C328.1 449.414 329.008 448.318 330.168 447.545C331.328 446.76 332.67 446.367 334.193 446.367C335.061 446.367 335.863 446.508 336.602 446.789C337.352 447.059 338.02 447.451 338.605 447.967C339.191 448.471 339.672 449.074 340.047 449.777H340.117V439.635H343.176V465H340.117V461.906H340.047C339.672 462.621 339.197 463.236 338.623 463.752C338.049 464.256 337.393 464.648 336.654 464.93C335.928 465.211 335.125 465.352 334.246 465.352ZM334.844 462.645C335.875 462.645 336.789 462.363 337.586 461.801C338.383 461.238 339.004 460.447 339.449 459.428C339.906 458.408 340.135 457.219 340.135 455.859V455.842C340.135 454.482 339.906 453.299 339.449 452.291C338.992 451.271 338.365 450.48 337.568 449.918C336.783 449.355 335.875 449.074 334.844 449.074C333.766 449.074 332.834 449.35 332.049 449.9C331.264 450.451 330.66 451.23 330.238 452.238C329.816 453.246 329.605 454.447 329.605 455.842V455.859C329.605 457.254 329.816 458.461 330.238 459.48C330.66 460.5 331.264 461.285 332.049 461.836C332.834 462.375 333.766 462.645 334.844 462.645ZM349.064 471.152C348.771 471.152 348.473 471.135 348.168 471.1C347.875 471.076 347.629 471.047 347.43 471.012V468.516C347.559 468.539 347.705 468.562 347.869 468.586C348.045 468.609 348.227 468.621 348.414 468.621C349.387 468.621 350.16 468.451 350.734 468.111C351.32 467.771 351.795 467.086 352.158 466.055L352.527 465.018L345.742 446.719H349.012L354.285 462.645L353.635 461.941H354.549L353.898 462.645L359.189 446.719H362.406L355.27 466.143C354.836 467.303 354.35 468.252 353.811 468.99C353.271 469.729 352.621 470.273 351.859 470.625C351.098 470.977 350.166 471.152 349.064 471.152ZM383.271 465.422C380.928 465.422 378.883 464.883 377.137 463.805C375.402 462.727 374.061 461.209 373.111 459.252C372.162 457.283 371.688 454.969 371.688 452.309V452.291C371.688 449.631 372.162 447.322 373.111 445.365C374.061 443.408 375.402 441.896 377.137 440.83C378.871 439.752 380.916 439.213 383.271 439.213C385.029 439.213 386.629 439.547 388.07 440.215C389.512 440.883 390.713 441.814 391.674 443.01C392.646 444.205 393.291 445.605 393.607 447.211L393.643 447.387H390.443L390.32 447C389.992 445.969 389.5 445.096 388.844 444.381C388.199 443.654 387.408 443.098 386.471 442.711C385.533 442.324 384.467 442.131 383.271 442.131C381.584 442.131 380.113 442.553 378.859 443.396C377.617 444.229 376.65 445.406 375.959 446.93C375.279 448.441 374.939 450.229 374.939 452.291V452.309C374.939 454.359 375.279 456.152 375.959 457.688C376.65 459.211 377.623 460.395 378.877 461.238C380.131 462.082 381.596 462.504 383.271 462.504C384.455 462.504 385.51 462.311 386.436 461.924C387.373 461.537 388.176 460.969 388.844 460.219C389.512 459.457 390.027 458.52 390.391 457.406L390.443 457.248H393.643L393.607 457.424C393.291 459.041 392.652 460.453 391.691 461.66C390.73 462.855 389.529 463.781 388.088 464.438C386.646 465.094 385.041 465.422 383.271 465.422ZM404.488 465.352C402.801 465.352 401.318 464.965 400.041 464.191C398.775 463.418 397.785 462.322 397.07 460.904C396.367 459.475 396.016 457.793 396.016 455.859V455.824C396.016 453.879 396.367 452.203 397.07 450.797C397.785 449.379 398.775 448.289 400.041 447.527C401.318 446.754 402.795 446.367 404.471 446.367C406.158 446.367 407.635 446.754 408.9 447.527C410.178 448.289 411.168 449.379 411.871 450.797C412.586 452.203 412.943 453.879 412.943 455.824V455.859C412.943 457.805 412.586 459.486 411.871 460.904C411.168 462.322 410.184 463.418 408.918 464.191C407.652 464.965 406.176 465.352 404.488 465.352ZM404.506 462.645C405.584 462.645 406.516 462.381 407.301 461.854C408.098 461.314 408.713 460.541 409.146 459.533C409.592 458.514 409.814 457.289 409.814 455.859V455.824C409.814 454.395 409.592 453.176 409.146 452.168C408.713 451.16 408.092 450.393 407.283 449.865C406.486 449.338 405.549 449.074 404.471 449.074C403.416 449.074 402.484 449.344 401.676 449.883C400.879 450.41 400.258 451.178 399.812 452.186C399.367 453.182 399.145 454.395 399.145 455.824V455.859C399.145 457.289 399.367 458.514 399.812 459.533C400.258 460.541 400.879 461.314 401.676 461.854C402.484 462.381 403.428 462.645 404.506 462.645ZM416.037 465V446.719H419.096V449.812H419.166C419.471 448.758 419.998 447.92 420.748 447.299C421.498 446.678 422.389 446.367 423.42 446.367C423.689 446.367 423.93 446.385 424.141 446.42C424.363 446.443 424.533 446.467 424.65 446.49V449.461C424.533 449.414 424.322 449.373 424.018 449.338C423.725 449.303 423.391 449.285 423.016 449.285C422.23 449.285 421.539 449.461 420.941 449.812C420.355 450.164 419.898 450.674 419.57 451.342C419.254 451.998 419.096 452.789 419.096 453.715V465H416.037ZM427.146 465V446.719H430.205V449.32H430.275C430.768 448.465 431.482 447.762 432.42 447.211C433.357 446.648 434.518 446.367 435.9 446.367C437.904 446.367 439.457 446.977 440.559 448.195C441.672 449.402 442.229 451.049 442.229 453.135V465H439.17V453.68C439.17 452.191 438.818 451.055 438.115 450.27C437.424 449.473 436.375 449.074 434.969 449.074C434.008 449.074 433.17 449.291 432.455 449.725C431.74 450.146 431.184 450.744 430.785 451.518C430.398 452.291 430.205 453.199 430.205 454.242V465H427.146ZM453.654 465.352C451.908 465.352 450.402 464.965 449.137 464.191C447.883 463.418 446.916 462.328 446.236 460.922C445.568 459.504 445.234 457.84 445.234 455.93V455.912C445.234 454.025 445.574 452.367 446.254 450.938C446.934 449.496 447.889 448.377 449.119 447.58C450.35 446.771 451.797 446.367 453.461 446.367C455.125 446.367 456.555 446.754 457.75 447.527C458.957 448.289 459.883 449.361 460.527 450.744C461.172 452.127 461.494 453.732 461.494 455.561V456.686H446.764V454.295H459.982L458.436 456.51V455.332C458.436 453.914 458.219 452.742 457.785 451.816C457.363 450.891 456.777 450.205 456.027 449.76C455.277 449.303 454.416 449.074 453.443 449.074C452.471 449.074 451.598 449.314 450.824 449.795C450.051 450.264 449.441 450.967 448.996 451.904C448.551 452.83 448.328 453.973 448.328 455.332V456.51C448.328 457.799 448.545 458.9 448.979 459.814C449.424 460.729 450.051 461.432 450.859 461.924C451.668 462.404 452.623 462.645 453.725 462.645C454.498 462.645 455.189 462.527 455.799 462.293C456.408 462.059 456.918 461.736 457.328 461.326C457.738 460.916 458.031 460.447 458.207 459.92L458.26 459.762H461.266L461.23 459.938C461.078 460.688 460.785 461.391 460.352 462.047C459.93 462.703 459.385 463.283 458.717 463.787C458.049 464.279 457.287 464.666 456.432 464.947C455.576 465.217 454.65 465.352 453.654 465.352ZM464.588 465V446.719H467.646V449.812H467.717C468.021 448.758 468.549 447.92 469.299 447.299C470.049 446.678 470.939 446.367 471.971 446.367C472.24 446.367 472.48 446.385 472.691 446.42C472.914 446.443 473.084 446.467 473.201 446.49V449.461C473.084 449.414 472.873 449.373 472.568 449.338C472.275 449.303 471.941 449.285 471.566 449.285C470.781 449.285 470.09 449.461 469.492 449.812C468.906 450.164 468.449 450.674 468.121 451.342C467.805 451.998 467.646 452.789 467.646 453.715V465H464.588Z" fill="#937F62"/>
<g filter="url(#filter1_d_788_1664)">
<rect x="40" y="720" width="456" height="100" rx="8" fill="white"/>
</g>
<path fill-rule="evenodd" clip-rule="evenodd" d="M96.0021 777.537C100.269 772.057 99.8837 764.129 94.846 759.091C89.3909 753.636 80.5464 753.636 75.0913 759.091C69.6362 764.546 69.6362 773.391 75.0913 778.846C80.1291 783.884 88.0575 784.269 93.5375 780.002C93.5611 780.029 93.5857 780.055 93.6112 780.081L101.019 787.488C101.701 788.171 102.807 788.171 103.489 787.488C104.17 786.807 104.17 785.701 103.489 785.019L96.0807 777.611C96.055 777.586 96.0288 777.561 96.0021 777.537ZM92.3766 761.561C96.468 765.652 96.468 772.285 92.3766 776.377C88.2853 780.468 81.652 780.468 77.5607 776.377C73.4693 772.285 73.4693 765.652 77.5607 761.561C81.652 757.469 88.2853 757.469 92.3766 761.561Z" fill="black" fill-opacity="0.2"/>
<path d="M141.758 784.422C139.93 784.422 138.318 784.141 136.924 783.578C135.541 783.004 134.439 782.189 133.619 781.135C132.811 780.08 132.354 778.832 132.248 777.391L132.23 777.145H135.395L135.43 777.391C135.559 778.234 135.904 778.967 136.467 779.588C137.029 780.197 137.773 780.672 138.699 781.012C139.637 781.34 140.715 781.504 141.934 781.504C143.152 781.504 144.207 781.334 145.098 780.994C145.988 780.643 146.674 780.145 147.154 779.5C147.646 778.855 147.893 778.1 147.893 777.232V777.215C147.893 776.102 147.506 775.211 146.732 774.543C145.959 773.875 144.699 773.348 142.953 772.961L140.141 772.346C137.668 771.795 135.834 770.951 134.639 769.814C133.455 768.666 132.863 767.166 132.863 765.314V765.297C132.875 763.902 133.262 762.678 134.023 761.623C134.785 760.557 135.834 759.725 137.17 759.127C138.518 758.518 140.059 758.213 141.793 758.213C143.445 758.213 144.922 758.512 146.223 759.109C147.523 759.695 148.561 760.516 149.334 761.57C150.119 762.625 150.559 763.844 150.652 765.227L150.67 765.49H147.506L147.471 765.244C147.342 764.377 147.025 763.639 146.521 763.029C146.018 762.42 145.355 761.951 144.535 761.623C143.727 761.295 142.783 761.131 141.705 761.131C140.58 761.131 139.596 761.301 138.752 761.641C137.908 761.98 137.252 762.455 136.783 763.064C136.326 763.674 136.098 764.389 136.098 765.209V765.227C136.098 766.258 136.49 767.107 137.275 767.775C138.061 768.443 139.279 768.959 140.932 769.322L143.744 769.938C145.479 770.312 146.885 770.811 147.963 771.432C149.053 772.053 149.85 772.826 150.354 773.752C150.869 774.666 151.127 775.768 151.127 777.057V777.074C151.127 778.574 150.746 779.875 149.984 780.977C149.234 782.078 148.156 782.928 146.75 783.525C145.355 784.123 143.691 784.422 141.758 784.422ZM160.303 784.352C158.627 784.352 157.373 783.953 156.541 783.156C155.709 782.359 155.293 781.088 155.293 779.342V768.25H152.621V765.719H155.293V760.779H158.457V765.719H161.938V768.25H158.457V779.324C158.457 780.297 158.668 780.959 159.09 781.311C159.512 781.65 160.133 781.82 160.953 781.82C161.141 781.82 161.316 781.814 161.48 781.803C161.656 781.779 161.809 781.762 161.938 781.75V784.229C161.75 784.252 161.504 784.275 161.199 784.299C160.906 784.334 160.607 784.352 160.303 784.352ZM170.217 784.352C169.01 784.352 167.949 784.123 167.035 783.666C166.121 783.209 165.406 782.564 164.891 781.732C164.387 780.9 164.135 779.934 164.135 778.832V778.797C164.135 777.754 164.393 776.852 164.908 776.09C165.436 775.328 166.191 774.725 167.176 774.279C168.172 773.834 169.367 773.57 170.762 773.488L177.529 773.102V775.475L171.113 775.861C169.895 775.932 168.945 776.225 168.266 776.74C167.598 777.256 167.264 777.941 167.264 778.797V778.832C167.264 779.711 167.592 780.408 168.248 780.924C168.916 781.439 169.801 781.697 170.902 781.697C171.863 781.697 172.725 781.498 173.486 781.1C174.26 780.689 174.869 780.133 175.314 779.43C175.771 778.727 176 777.936 176 777.057V771.66C176 770.547 175.648 769.674 174.945 769.041C174.254 768.396 173.27 768.074 171.992 768.074C170.82 768.074 169.871 768.332 169.145 768.848C168.43 769.352 167.984 770.014 167.809 770.834L167.773 770.992H164.82L164.838 770.799C164.932 769.791 165.271 768.877 165.857 768.057C166.455 767.236 167.275 766.586 168.318 766.105C169.361 765.613 170.598 765.367 172.027 765.367C173.469 765.367 174.711 765.613 175.754 766.105C176.809 766.598 177.623 767.295 178.197 768.197C178.771 769.088 179.059 770.143 179.059 771.361V784H176V781.029H175.93C175.578 781.697 175.109 782.283 174.523 782.787C173.938 783.279 173.275 783.666 172.537 783.947C171.811 784.217 171.037 784.352 170.217 784.352ZM182.943 784V765.719H186.002V768.812H186.072C186.377 767.758 186.904 766.92 187.654 766.299C188.404 765.678 189.295 765.367 190.326 765.367C190.596 765.367 190.836 765.385 191.047 765.42C191.27 765.443 191.439 765.467 191.557 765.49V768.461C191.439 768.414 191.229 768.373 190.924 768.338C190.631 768.303 190.297 768.285 189.922 768.285C189.137 768.285 188.445 768.461 187.848 768.812C187.262 769.164 186.805 769.674 186.477 770.342C186.16 770.998 186.002 771.789 186.002 772.715V784H182.943ZM203.141 784.352C202.273 784.352 201.471 784.211 200.732 783.93C199.994 783.648 199.338 783.256 198.764 782.752C198.201 782.236 197.727 781.621 197.34 780.906H197.27V784H194.211V758.635H197.27V768.777H197.34C197.727 768.074 198.207 767.471 198.781 766.967C199.367 766.451 200.035 766.059 200.785 765.789C201.535 765.508 202.338 765.367 203.193 765.367C204.729 765.367 206.07 765.76 207.219 766.545C208.379 767.318 209.281 768.414 209.926 769.832C210.582 771.25 210.91 772.92 210.91 774.842V774.859C210.91 776.781 210.588 778.457 209.943 779.887C209.299 781.305 208.391 782.406 207.219 783.191C206.059 783.965 204.699 784.352 203.141 784.352ZM202.543 781.645C203.621 781.645 204.553 781.375 205.338 780.836C206.123 780.285 206.727 779.5 207.148 778.48C207.57 777.461 207.781 776.254 207.781 774.859V774.842C207.781 773.447 207.57 772.246 207.148 771.238C206.727 770.23 206.123 769.451 205.338 768.9C204.553 768.35 203.621 768.074 202.543 768.074C201.512 768.074 200.598 768.355 199.801 768.918C199.016 769.48 198.395 770.271 197.938 771.291C197.48 772.299 197.252 773.482 197.252 774.842V774.859C197.252 776.219 197.475 777.408 197.92 778.428C198.377 779.447 199.004 780.238 199.801 780.801C200.598 781.363 201.512 781.645 202.543 781.645ZM220.227 784.352C218.891 784.352 217.748 784.076 216.799 783.525C215.861 782.975 215.141 782.195 214.637 781.188C214.145 780.168 213.898 778.967 213.898 777.584V765.719H216.957V777.039C216.957 778.527 217.303 779.67 217.994 780.467C218.697 781.252 219.752 781.645 221.158 781.645C221.885 781.645 222.535 781.521 223.109 781.275C223.695 781.029 224.199 780.684 224.621 780.238C225.043 779.781 225.365 779.236 225.588 778.604C225.811 777.959 225.922 777.25 225.922 776.477V765.719H228.98V784H225.922V781.398H225.852C225.523 781.961 225.096 782.465 224.568 782.91C224.053 783.355 223.432 783.707 222.705 783.965C221.979 784.223 221.152 784.352 220.227 784.352ZM240.547 784.352C238.824 784.352 237.324 783.965 236.047 783.191C234.781 782.406 233.803 781.305 233.111 779.887C232.42 778.457 232.074 776.775 232.074 774.842V774.824C232.074 772.902 232.426 771.232 233.129 769.814C233.832 768.396 234.816 767.301 236.082 766.527C237.348 765.754 238.824 765.367 240.512 765.367C242.035 765.367 243.342 765.666 244.432 766.264C245.521 766.85 246.377 767.611 246.998 768.549C247.631 769.486 248.012 770.477 248.141 771.52L248.158 771.66H245.17L245.135 771.52C244.912 770.605 244.42 769.803 243.658 769.111C242.908 768.42 241.859 768.074 240.512 768.074C239.457 768.074 238.531 768.355 237.734 768.918C236.938 769.469 236.316 770.254 235.871 771.273C235.426 772.281 235.203 773.477 235.203 774.859V774.877C235.203 776.295 235.426 777.508 235.871 778.516C236.328 779.523 236.955 780.297 237.752 780.836C238.561 781.375 239.492 781.645 240.547 781.645C241.801 781.645 242.814 781.328 243.588 780.695C244.373 780.051 244.895 779.219 245.152 778.199L245.188 778.059H248.193L248.176 778.182C248.012 779.342 247.584 780.391 246.893 781.328C246.213 782.254 245.328 782.992 244.238 783.543C243.16 784.082 241.93 784.352 240.547 784.352ZM251.252 784V758.635H254.311V784H251.252ZM262.801 784L255.84 775.264L257.879 773.225L266.352 784H262.801ZM253.625 777.76V773.787H254.381L262.396 765.719H266.105L257.439 774.35H257.193L253.625 777.76ZM274.262 784.352C272.832 784.352 271.596 784.123 270.553 783.666C269.51 783.209 268.684 782.57 268.074 781.75C267.477 780.93 267.113 779.975 266.984 778.885L266.967 778.727H270.025L270.061 778.902C270.248 779.816 270.688 780.531 271.379 781.047C272.07 781.551 273.037 781.803 274.279 781.803C275.111 781.803 275.82 781.697 276.406 781.486C276.992 781.264 277.443 780.953 277.76 780.555C278.076 780.145 278.234 779.664 278.234 779.113V779.096C278.234 778.439 278.035 777.912 277.637 777.514C277.238 777.115 276.518 776.787 275.475 776.529L272.574 775.826C271.426 775.545 270.471 775.182 269.709 774.736C268.959 774.279 268.396 773.723 268.021 773.066C267.646 772.41 267.459 771.643 267.459 770.764V770.746C267.459 769.691 267.74 768.76 268.303 767.951C268.877 767.143 269.668 766.51 270.676 766.053C271.695 765.596 272.861 765.367 274.174 765.367C275.51 765.367 276.67 765.607 277.654 766.088C278.65 766.557 279.43 767.201 279.992 768.021C280.566 768.83 280.889 769.744 280.959 770.764L280.977 770.992H278.059L278.041 770.869C277.924 769.979 277.531 769.264 276.863 768.725C276.207 768.186 275.311 767.916 274.174 767.916C273.436 767.916 272.797 768.027 272.258 768.25C271.719 768.473 271.303 768.789 271.01 769.199C270.729 769.598 270.588 770.066 270.588 770.605V770.623C270.588 771.033 270.682 771.408 270.869 771.748C271.068 772.076 271.379 772.363 271.801 772.609C272.223 772.855 272.768 773.061 273.436 773.225L276.336 773.928C278.188 774.373 279.488 774.988 280.238 775.773C280.988 776.547 281.363 777.584 281.363 778.885V778.902C281.363 779.969 281.053 780.912 280.432 781.732C279.822 782.553 278.979 783.197 277.9 783.666C276.834 784.123 275.621 784.352 274.262 784.352ZM300.699 784.422C298.871 784.422 297.26 784.141 295.865 783.578C294.482 783.004 293.381 782.189 292.561 781.135C291.752 780.08 291.295 778.832 291.189 777.391L291.172 777.145H294.336L294.371 777.391C294.5 778.234 294.846 778.967 295.408 779.588C295.971 780.197 296.715 780.672 297.641 781.012C298.578 781.34 299.656 781.504 300.875 781.504C302.094 781.504 303.148 781.334 304.039 780.994C304.93 780.643 305.615 780.145 306.096 779.5C306.588 778.855 306.834 778.1 306.834 777.232V777.215C306.834 776.102 306.447 775.211 305.674 774.543C304.9 773.875 303.641 773.348 301.895 772.961L299.082 772.346C296.609 771.795 294.775 770.951 293.58 769.814C292.396 768.666 291.805 767.166 291.805 765.314V765.297C291.816 763.902 292.203 762.678 292.965 761.623C293.727 760.557 294.775 759.725 296.111 759.127C297.459 758.518 299 758.213 300.734 758.213C302.387 758.213 303.863 758.512 305.164 759.109C306.465 759.695 307.502 760.516 308.275 761.57C309.061 762.625 309.5 763.844 309.594 765.227L309.611 765.49H306.447L306.412 765.244C306.283 764.377 305.967 763.639 305.463 763.029C304.959 762.42 304.297 761.951 303.477 761.623C302.668 761.295 301.725 761.131 300.646 761.131C299.521 761.131 298.537 761.301 297.693 761.641C296.85 761.98 296.193 762.455 295.725 763.064C295.268 763.674 295.039 764.389 295.039 765.209V765.227C295.039 766.258 295.432 767.107 296.217 767.775C297.002 768.443 298.221 768.959 299.873 769.322L302.686 769.938C304.42 770.312 305.826 770.811 306.904 771.432C307.994 772.053 308.791 772.826 309.295 773.752C309.811 774.666 310.068 775.768 310.068 777.057V777.074C310.068 778.574 309.688 779.875 308.926 780.977C308.176 782.078 307.098 782.928 305.691 783.525C304.297 784.123 302.633 784.422 300.699 784.422ZM313.777 784V758.635H317.434L326.223 780.01H326.328L335.117 758.635H338.773V784H335.82V764.4H334.379L337.807 759.338L327.611 784H324.939L314.744 759.338L318.172 764.4H316.73V784H313.777ZM351.078 784V758.635H354.734L363.523 780.01H363.629L372.418 758.635H376.074V784H373.121V764.4H371.68L375.107 759.338L364.912 784H362.24L352.045 759.338L355.473 764.4H354.031V784H351.078ZM385.338 784.352C384.131 784.352 383.07 784.123 382.156 783.666C381.242 783.209 380.527 782.564 380.012 781.732C379.508 780.9 379.256 779.934 379.256 778.832V778.797C379.256 777.754 379.514 776.852 380.029 776.09C380.557 775.328 381.312 774.725 382.297 774.279C383.293 773.834 384.488 773.57 385.883 773.488L392.65 773.102V775.475L386.234 775.861C385.016 775.932 384.066 776.225 383.387 776.74C382.719 777.256 382.385 777.941 382.385 778.797V778.832C382.385 779.711 382.713 780.408 383.369 780.924C384.037 781.439 384.922 781.697 386.023 781.697C386.984 781.697 387.846 781.498 388.607 781.1C389.381 780.689 389.99 780.133 390.436 779.43C390.893 778.727 391.121 777.936 391.121 777.057V771.66C391.121 770.547 390.77 769.674 390.066 769.041C389.375 768.396 388.391 768.074 387.113 768.074C385.941 768.074 384.992 768.332 384.266 768.848C383.551 769.352 383.105 770.014 382.93 770.834L382.895 770.992H379.941L379.959 770.799C380.053 769.791 380.393 768.877 380.979 768.057C381.576 767.236 382.396 766.586 383.439 766.105C384.482 765.613 385.719 765.367 387.148 765.367C388.59 765.367 389.832 765.613 390.875 766.105C391.93 766.598 392.744 767.295 393.318 768.197C393.893 769.088 394.18 770.143 394.18 771.361V784H391.121V781.029H391.051C390.699 781.697 390.23 782.283 389.645 782.787C389.059 783.279 388.396 783.666 387.658 783.947C386.932 784.217 386.158 784.352 385.338 784.352ZM398.064 784V765.719H401.123V768.32H401.193C401.686 767.465 402.4 766.762 403.338 766.211C404.275 765.648 405.436 765.367 406.818 765.367C408.822 765.367 410.375 765.977 411.477 767.195C412.59 768.402 413.146 770.049 413.146 772.135V784H410.088V772.68C410.088 771.191 409.736 770.055 409.033 769.27C408.342 768.473 407.293 768.074 405.887 768.074C404.926 768.074 404.088 768.291 403.373 768.725C402.658 769.146 402.102 769.744 401.703 770.518C401.316 771.291 401.123 772.199 401.123 773.242V784H398.064ZM417.242 784V765.719H420.301V784H417.242ZM418.771 762.625C418.244 762.625 417.793 762.438 417.418 762.062C417.043 761.688 416.855 761.236 416.855 760.709C416.855 760.17 417.043 759.719 417.418 759.355C417.793 758.98 418.244 758.793 418.771 758.793C419.311 758.793 419.762 758.98 420.125 759.355C420.5 759.719 420.688 760.17 420.688 760.709C420.688 761.236 420.5 761.688 420.125 762.062C419.762 762.438 419.311 762.625 418.771 762.625ZM424.625 784V758.635H427.684V784H424.625ZM437.158 784.352C435.951 784.352 434.891 784.123 433.977 783.666C433.062 783.209 432.348 782.564 431.832 781.732C431.328 780.9 431.076 779.934 431.076 778.832V778.797C431.076 777.754 431.334 776.852 431.85 776.09C432.377 775.328 433.133 774.725 434.117 774.279C435.113 773.834 436.309 773.57 437.703 773.488L444.471 773.102V775.475L438.055 775.861C436.836 775.932 435.887 776.225 435.207 776.74C434.539 777.256 434.205 777.941 434.205 778.797V778.832C434.205 779.711 434.533 780.408 435.189 780.924C435.857 781.439 436.742 781.697 437.844 781.697C438.805 781.697 439.666 781.498 440.428 781.1C441.201 780.689 441.811 780.133 442.256 779.43C442.713 778.727 442.941 777.936 442.941 777.057V771.66C442.941 770.547 442.59 769.674 441.887 769.041C441.195 768.396 440.211 768.074 438.934 768.074C437.762 768.074 436.812 768.332 436.086 768.848C435.371 769.352 434.926 770.014 434.75 770.834L434.715 770.992H431.762L431.779 770.799C431.873 769.791 432.213 768.877 432.799 768.057C433.396 767.236 434.217 766.586 435.26 766.105C436.303 765.613 437.539 765.367 438.969 765.367C440.41 765.367 441.652 765.613 442.695 766.105C443.75 766.598 444.564 767.295 445.139 768.197C445.713 769.088 446 770.143 446 771.361V784H442.941V781.029H442.871C442.52 781.697 442.051 782.283 441.465 782.787C440.879 783.279 440.217 783.666 439.479 783.947C438.752 784.217 437.979 784.352 437.158 784.352Z" fill="#937F62" fill-opacity="0.5"/>
<g filter="url(#filter2_d_788_1664)">
<rect x="676" y="622" width="456" height="100" rx="8" fill="white"/>
</g>
<path fill-rule="evenodd" clip-rule="evenodd" d="M732.002 679.537C736.269 674.057 735.884 666.129 730.846 661.091C725.391 655.636 716.546 655.636 711.091 661.091C705.636 666.546 705.636 675.391 711.091 680.846C716.129 685.884 724.057 686.269 729.538 682.002C729.561 682.029 729.586 682.055 729.611 682.081L737.019 689.488C737.701 690.171 738.807 690.171 739.489 689.488C740.17 688.807 740.17 687.701 739.489 687.019L732.081 679.611C732.055 679.586 732.029 679.561 732.002 679.537ZM728.377 663.561C732.468 667.652 732.468 674.285 728.377 678.377C724.285 682.468 717.652 682.468 713.561 678.377C709.469 674.285 709.469 667.652 713.561 663.561C717.652 659.469 724.285 659.469 728.377 663.561Z" fill="black" fill-opacity="0.2"/>
<path d="M771.043 676.947V674.135H777.688C779.504 674.135 780.91 673.666 781.906 672.729C782.902 671.779 783.4 670.473 783.4 668.809V668.773C783.4 667.098 782.902 665.791 781.906 664.854C780.91 663.916 779.504 663.447 777.688 663.447H771.043V660.635H778.496C780.09 660.635 781.496 660.975 782.715 661.654C783.934 662.334 784.889 663.283 785.58 664.502C786.283 665.721 786.635 667.133 786.635 668.738V668.773C786.635 670.379 786.283 671.797 785.58 673.027C784.889 674.258 783.934 675.219 782.715 675.91C781.496 676.602 780.09 676.947 778.496 676.947H771.043ZM769.461 686V660.635H772.625V686H769.461ZM796.443 686.352C794.697 686.352 793.191 685.965 791.926 685.191C790.672 684.418 789.705 683.328 789.025 681.922C788.357 680.504 788.023 678.84 788.023 676.93V676.912C788.023 675.025 788.363 673.367 789.043 671.938C789.723 670.496 790.678 669.377 791.908 668.58C793.139 667.771 794.586 667.367 796.25 667.367C797.914 667.367 799.344 667.754 800.539 668.527C801.746 669.289 802.672 670.361 803.316 671.744C803.961 673.127 804.283 674.732 804.283 676.561V677.686H789.553V675.295H802.771L801.225 677.51V676.332C801.225 674.914 801.008 673.742 800.574 672.816C800.152 671.891 799.566 671.205 798.816 670.76C798.066 670.303 797.205 670.074 796.232 670.074C795.26 670.074 794.387 670.314 793.613 670.795C792.84 671.264 792.23 671.967 791.785 672.904C791.34 673.83 791.117 674.973 791.117 676.332V677.51C791.117 678.799 791.334 679.9 791.768 680.814C792.213 681.729 792.84 682.432 793.648 682.924C794.457 683.404 795.412 683.645 796.514 683.645C797.287 683.645 797.979 683.527 798.588 683.293C799.197 683.059 799.707 682.736 800.117 682.326C800.527 681.916 800.82 681.447 800.996 680.92L801.049 680.762H804.055L804.02 680.938C803.867 681.688 803.574 682.391 803.141 683.047C802.719 683.703 802.174 684.283 801.506 684.787C800.838 685.279 800.076 685.666 799.221 685.947C798.365 686.217 797.439 686.352 796.443 686.352ZM815.111 692.504C813.611 692.504 812.299 692.287 811.174 691.854C810.061 691.432 809.158 690.852 808.467 690.113C807.787 689.387 807.348 688.572 807.148 687.67L807.113 687.512H810.189L810.26 687.67C810.553 688.326 811.115 688.842 811.947 689.217C812.791 689.604 813.834 689.797 815.076 689.797C816.682 689.797 817.924 689.381 818.803 688.549C819.682 687.729 820.121 686.609 820.121 685.191V682.854H820.051C819.688 683.533 819.219 684.119 818.645 684.611C818.07 685.104 817.408 685.49 816.658 685.771C815.92 686.041 815.111 686.176 814.232 686.176C812.697 686.176 811.344 685.789 810.172 685.016C809.012 684.23 808.104 683.135 807.447 681.729C806.803 680.311 806.48 678.652 806.48 676.754V676.736C806.48 674.838 806.809 673.191 807.465 671.797C808.133 670.391 809.053 669.301 810.225 668.527C811.396 667.754 812.756 667.367 814.303 667.367C815.17 667.367 815.967 667.514 816.693 667.807C817.42 668.1 818.064 668.504 818.627 669.02C819.201 669.535 819.676 670.133 820.051 670.812H820.121V667.719H823.18V685.49C823.18 686.908 822.852 688.139 822.195 689.182C821.539 690.236 820.607 691.051 819.4 691.625C818.193 692.211 816.764 692.504 815.111 692.504ZM814.9 683.469C815.943 683.469 816.852 683.193 817.625 682.643C818.41 682.08 819.02 681.295 819.453 680.287C819.898 679.279 820.121 678.102 820.121 676.754V676.736C820.121 675.389 819.898 674.217 819.453 673.221C819.02 672.225 818.41 671.451 817.625 670.9C816.84 670.35 815.932 670.074 814.9 670.074C813.822 670.074 812.885 670.35 812.088 670.9C811.291 671.439 810.676 672.207 810.242 673.203C809.82 674.199 809.609 675.377 809.609 676.736V676.754C809.609 678.137 809.82 679.332 810.242 680.34C810.676 681.336 811.291 682.109 812.088 682.66C812.885 683.199 813.822 683.469 814.9 683.469ZM828.119 686V670.25H825.57V667.719H828.119V665.469C828.119 664.297 828.301 663.33 828.664 662.568C829.039 661.795 829.596 661.221 830.334 660.846C831.072 660.471 832.004 660.283 833.129 660.283C833.469 660.283 833.809 660.295 834.148 660.318C834.488 660.342 834.77 660.371 834.992 660.406V662.885C834.805 662.861 834.594 662.844 834.359 662.832C834.137 662.82 833.908 662.814 833.674 662.814C832.83 662.814 832.197 663.037 831.775 663.482C831.354 663.916 831.143 664.584 831.143 665.486V667.719H834.904V670.25H831.178V686H828.119ZM844.309 686.352C842.973 686.352 841.83 686.076 840.881 685.525C839.943 684.975 839.223 684.195 838.719 683.188C838.227 682.168 837.98 680.967 837.98 679.584V667.719H841.039V679.039C841.039 680.527 841.385 681.67 842.076 682.467C842.779 683.252 843.834 683.645 845.24 683.645C845.967 683.645 846.617 683.521 847.191 683.275C847.777 683.029 848.281 682.684 848.703 682.238C849.125 681.781 849.447 681.236 849.67 680.604C849.893 679.959 850.004 679.25 850.004 678.477V667.719H853.062V686H850.004V683.398H849.934C849.605 683.961 849.178 684.465 848.65 684.91C848.135 685.355 847.514 685.707 846.787 685.965C846.061 686.223 845.234 686.352 844.309 686.352ZM858.037 686V670.25H855.488V667.719H858.037V665.469C858.037 664.297 858.219 663.33 858.582 662.568C858.957 661.795 859.514 661.221 860.252 660.846C860.99 660.471 861.922 660.283 863.047 660.283C863.387 660.283 863.727 660.295 864.066 660.318C864.406 660.342 864.688 660.371 864.91 660.406V662.885C864.723 662.861 864.512 662.844 864.277 662.832C864.055 662.82 863.826 662.814 863.592 662.814C862.748 662.814 862.115 663.037 861.693 663.482C861.271 663.916 861.061 664.584 861.061 665.486V667.719H864.822V670.25H861.096V686H858.037ZM868.971 686V670.25H866.422V667.719H868.971V665.469C868.971 664.297 869.152 663.33 869.516 662.568C869.891 661.795 870.447 661.221 871.186 660.846C871.924 660.471 872.855 660.283 873.98 660.283C874.32 660.283 874.66 660.295 875 660.318C875.34 660.342 875.621 660.371 875.844 660.406V662.885C875.656 662.861 875.445 662.844 875.211 662.832C874.988 662.82 874.76 662.814 874.525 662.814C873.682 662.814 873.049 663.037 872.627 663.482C872.205 663.916 871.994 664.584 871.994 665.486V667.719H875.756V670.25H872.029V686H868.971ZM879.113 686V667.719H882.172V686H879.113ZM880.643 664.625C880.115 664.625 879.664 664.438 879.289 664.062C878.914 663.688 878.727 663.236 878.727 662.709C878.727 662.17 878.914 661.719 879.289 661.355C879.664 660.98 880.115 660.793 880.643 660.793C881.182 660.793 881.633 660.98 881.996 661.355C882.371 661.719 882.559 662.17 882.559 662.709C882.559 663.236 882.371 663.688 881.996 664.062C881.633 664.438 881.182 664.625 880.643 664.625ZM886.338 686V667.719H889.396V670.32H889.467C889.959 669.465 890.674 668.762 891.611 668.211C892.549 667.648 893.709 667.367 895.092 667.367C897.096 667.367 898.648 667.977 899.75 669.195C900.863 670.402 901.42 672.049 901.42 674.135V686H898.361V674.68C898.361 673.191 898.01 672.055 897.307 671.27C896.615 670.473 895.566 670.074 894.16 670.074C893.199 670.074 892.361 670.291 891.646 670.725C890.932 671.146 890.375 671.744 889.977 672.518C889.59 673.291 889.396 674.199 889.396 675.242V686H886.338ZM904.127 669.23L905.674 660.635H908.873L906.307 669.23H904.127ZM916.203 686.352C914.773 686.352 913.537 686.123 912.494 685.666C911.451 685.209 910.625 684.57 910.016 683.75C909.418 682.93 909.055 681.975 908.926 680.885L908.908 680.727H911.967L912.002 680.902C912.189 681.816 912.629 682.531 913.32 683.047C914.012 683.551 914.979 683.803 916.221 683.803C917.053 683.803 917.762 683.697 918.348 683.486C918.934 683.264 919.385 682.953 919.701 682.555C920.018 682.145 920.176 681.664 920.176 681.113V681.096C920.176 680.439 919.977 679.912 919.578 679.514C919.18 679.115 918.459 678.787 917.416 678.529L914.516 677.826C913.367 677.545 912.412 677.182 911.65 676.736C910.9 676.279 910.338 675.723 909.963 675.066C909.588 674.41 909.4 673.643 909.4 672.764V672.746C909.4 671.691 909.682 670.76 910.244 669.951C910.818 669.143 911.609 668.51 912.617 668.053C913.637 667.596 914.803 667.367 916.115 667.367C917.451 667.367 918.611 667.607 919.596 668.088C920.592 668.557 921.371 669.201 921.934 670.021C922.508 670.83 922.83 671.744 922.9 672.764L922.918 672.992H920L919.982 672.869C919.865 671.979 919.473 671.264 918.805 670.725C918.148 670.186 917.252 669.916 916.115 669.916C915.377 669.916 914.738 670.027 914.199 670.25C913.66 670.473 913.244 670.789 912.951 671.199C912.67 671.598 912.529 672.066 912.529 672.605V672.623C912.529 673.033 912.623 673.408 912.811 673.748C913.01 674.076 913.32 674.363 913.742 674.609C914.164 674.855 914.709 675.061 915.377 675.225L918.277 675.928C920.129 676.373 921.43 676.988 922.18 677.773C922.93 678.547 923.305 679.584 923.305 680.885V680.902C923.305 681.969 922.994 682.912 922.373 683.732C921.764 684.553 920.92 685.197 919.842 685.666C918.775 686.123 917.562 686.352 916.203 686.352ZM944.943 686.422C942.6 686.422 940.555 685.883 938.809 684.805C937.074 683.727 935.732 682.209 934.783 680.252C933.834 678.283 933.359 675.969 933.359 673.309V673.291C933.359 670.631 933.834 668.322 934.783 666.365C935.732 664.408 937.074 662.896 938.809 661.83C940.543 660.752 942.588 660.213 944.943 660.213C946.701 660.213 948.301 660.547 949.742 661.215C951.184 661.883 952.385 662.814 953.346 664.01C954.318 665.205 954.963 666.605 955.279 668.211L955.314 668.387H952.115L951.992 668C951.664 666.969 951.172 666.096 950.516 665.381C949.871 664.654 949.08 664.098 948.143 663.711C947.205 663.324 946.139 663.131 944.943 663.131C943.256 663.131 941.785 663.553 940.531 664.396C939.289 665.229 938.322 666.406 937.631 667.93C936.951 669.441 936.611 671.229 936.611 673.291V673.309C936.611 675.359 936.951 677.152 937.631 678.688C938.322 680.211 939.295 681.395 940.549 682.238C941.803 683.082 943.268 683.504 944.943 683.504C946.127 683.504 947.182 683.311 948.107 682.924C949.045 682.537 949.848 681.969 950.516 681.219C951.184 680.457 951.699 679.52 952.062 678.406L952.115 678.248H955.314L955.279 678.424C954.963 680.041 954.324 681.453 953.363 682.66C952.402 683.855 951.201 684.781 949.76 685.438C948.318 686.094 946.713 686.422 944.943 686.422ZM963.928 686.352C962.721 686.352 961.66 686.123 960.746 685.666C959.832 685.209 959.117 684.564 958.602 683.732C958.098 682.9 957.846 681.934 957.846 680.832V680.797C957.846 679.754 958.104 678.852 958.619 678.09C959.146 677.328 959.902 676.725 960.887 676.279C961.883 675.834 963.078 675.57 964.473 675.488L971.24 675.102V677.475L964.824 677.861C963.605 677.932 962.656 678.225 961.977 678.74C961.309 679.256 960.975 679.941 960.975 680.797V680.832C960.975 681.711 961.303 682.408 961.959 682.924C962.627 683.439 963.512 683.697 964.613 683.697C965.574 683.697 966.436 683.498 967.197 683.1C967.971 682.689 968.58 682.133 969.025 681.43C969.482 680.727 969.711 679.936 969.711 679.057V673.66C969.711 672.547 969.359 671.674 968.656 671.041C967.965 670.396 966.98 670.074 965.703 670.074C964.531 670.074 963.582 670.332 962.855 670.848C962.141 671.352 961.695 672.014 961.52 672.834L961.484 672.992H958.531L958.549 672.799C958.643 671.791 958.982 670.877 959.568 670.057C960.166 669.236 960.986 668.586 962.029 668.105C963.072 667.613 964.309 667.367 965.738 667.367C967.18 667.367 968.422 667.613 969.465 668.105C970.52 668.598 971.334 669.295 971.908 670.197C972.482 671.088 972.77 672.143 972.77 673.361V686H969.711V683.029H969.641C969.289 683.697 968.82 684.283 968.234 684.787C967.648 685.279 966.986 685.666 966.248 685.947C965.521 686.217 964.748 686.352 963.928 686.352ZM977.639 686V670.25H975.09V667.719H977.639V665.469C977.639 664.297 977.82 663.33 978.184 662.568C978.559 661.795 979.115 661.221 979.854 660.846C980.592 660.471 981.523 660.283 982.648 660.283C982.988 660.283 983.328 660.295 983.668 660.318C984.008 660.342 984.289 660.371 984.512 660.406V662.885C984.324 662.861 984.113 662.844 983.879 662.832C983.656 662.82 983.428 662.814 983.193 662.814C982.35 662.814 981.717 663.037 981.295 663.482C980.873 663.916 980.662 664.584 980.662 665.486V667.719H984.424V670.25H980.697V686H977.639ZM993.354 686.352C991.607 686.352 990.102 685.965 988.836 685.191C987.582 684.418 986.615 683.328 985.936 681.922C985.268 680.504 984.934 678.84 984.934 676.93V676.912C984.934 675.025 985.273 673.367 985.953 671.938C986.633 670.496 987.588 669.377 988.818 668.58C990.049 667.771 991.496 667.367 993.16 667.367C994.824 667.367 996.254 667.754 997.449 668.527C998.656 669.289 999.582 670.361 1000.23 671.744C1000.87 673.127 1001.19 674.732 1001.19 676.561V677.686H986.463V675.295H999.682L998.135 677.51V676.332C998.135 674.914 997.918 673.742 997.484 672.816C997.062 671.891 996.477 671.205 995.727 670.76C994.977 670.303 994.115 670.074 993.143 670.074C992.17 670.074 991.297 670.314 990.523 670.795C989.75 671.264 989.141 671.967 988.695 672.904C988.25 673.83 988.027 674.973 988.027 676.332V677.51C988.027 678.799 988.244 679.9 988.678 680.814C989.123 681.729 989.75 682.432 990.559 682.924C991.367 683.404 992.322 683.645 993.424 683.645C994.197 683.645 994.889 683.527 995.498 683.293C996.107 683.059 996.617 682.736 997.027 682.326C997.438 681.916 997.73 681.447 997.906 680.92L997.959 680.762H1000.96L1000.93 680.938C1000.78 681.688 1000.48 682.391 1000.05 683.047C999.629 683.703 999.084 684.283 998.416 684.787C997.748 685.279 996.986 685.666 996.131 685.947C995.275 686.217 994.35 686.352 993.354 686.352Z" fill="#937F62" fill-opacity="0.5"/>
<g filter="url(#filter3_d_788_1664)">
<rect x="836" y="401" width="456" height="100" rx="8" fill="white"/>
</g>
<path fill-rule="evenodd" clip-rule="evenodd" d="M892.002 458.537C896.269 453.057 895.884 445.129 890.846 440.091C885.391 434.636 876.546 434.636 871.091 440.091C865.636 445.546 865.636 454.391 871.091 459.846C876.129 464.884 884.057 465.269 889.538 461.002C889.561 461.029 889.586 461.055 889.611 461.081L897.019 468.488C897.701 469.171 898.807 469.171 899.489 468.488C900.17 467.807 900.17 466.701 899.489 466.019L892.081 458.611C892.055 458.586 892.029 458.561 892.002 458.537ZM888.377 442.561C892.468 446.652 892.468 453.285 888.377 457.377C884.285 461.468 877.652 461.468 873.561 457.377C869.469 453.285 869.469 446.652 873.561 442.561C877.652 438.469 884.285 438.469 888.377 442.561Z" fill="black" fill-opacity="0.2"/>
<path d="M928.723 465V462.75L943.225 442.553V442.482H929.215V439.635H947.18V441.885L932.748 462.082V462.152H947.479V465H928.723ZM957.445 465.352C956.109 465.352 954.967 465.076 954.018 464.525C953.08 463.975 952.359 463.195 951.855 462.188C951.363 461.168 951.117 459.967 951.117 458.584V446.719H954.176V458.039C954.176 459.527 954.521 460.67 955.213 461.467C955.916 462.252 956.971 462.645 958.377 462.645C959.104 462.645 959.754 462.521 960.328 462.275C960.914 462.029 961.418 461.684 961.84 461.238C962.262 460.781 962.584 460.236 962.807 459.604C963.029 458.959 963.141 458.25 963.141 457.477V446.719H966.199V465H963.141V462.398H963.07C962.742 462.961 962.314 463.465 961.787 463.91C961.271 464.355 960.65 464.707 959.924 464.965C959.197 465.223 958.371 465.352 957.445 465.352ZM976.676 465.352C975.246 465.352 974.01 465.123 972.967 464.666C971.924 464.209 971.098 463.57 970.488 462.75C969.891 461.93 969.527 460.975 969.398 459.885L969.381 459.727H972.439L972.475 459.902C972.662 460.816 973.102 461.531 973.793 462.047C974.484 462.551 975.451 462.803 976.693 462.803C977.525 462.803 978.234 462.697 978.82 462.486C979.406 462.264 979.857 461.953 980.174 461.555C980.49 461.145 980.648 460.664 980.648 460.113V460.096C980.648 459.439 980.449 458.912 980.051 458.514C979.652 458.115 978.932 457.787 977.889 457.529L974.988 456.826C973.84 456.545 972.885 456.182 972.123 455.736C971.373 455.279 970.811 454.723 970.436 454.066C970.061 453.41 969.873 452.643 969.873 451.764V451.746C969.873 450.691 970.154 449.76 970.717 448.951C971.291 448.143 972.082 447.51 973.09 447.053C974.109 446.596 975.275 446.367 976.588 446.367C977.924 446.367 979.084 446.607 980.068 447.088C981.064 447.557 981.844 448.201 982.406 449.021C982.98 449.83 983.303 450.744 983.373 451.764L983.391 451.992H980.473L980.455 451.869C980.338 450.979 979.945 450.264 979.277 449.725C978.621 449.186 977.725 448.916 976.588 448.916C975.85 448.916 975.211 449.027 974.672 449.25C974.133 449.473 973.717 449.789 973.424 450.199C973.143 450.598 973.002 451.066 973.002 451.605V451.623C973.002 452.033 973.096 452.408 973.283 452.748C973.482 453.076 973.793 453.363 974.215 453.609C974.637 453.855 975.182 454.061 975.85 454.225L978.75 454.928C980.602 455.373 981.902 455.988 982.652 456.773C983.402 457.547 983.777 458.584 983.777 459.885V459.902C983.777 460.969 983.467 461.912 982.846 462.732C982.236 463.553 981.393 464.197 980.314 464.666C979.248 465.123 978.035 465.352 976.676 465.352ZM1005.42 465.422C1003.07 465.422 1001.03 464.883 999.281 463.805C997.547 462.727 996.205 461.209 995.256 459.252C994.307 457.283 993.832 454.969 993.832 452.309V452.291C993.832 449.631 994.307 447.322 995.256 445.365C996.205 443.408 997.547 441.896 999.281 440.83C1001.02 439.752 1003.06 439.213 1005.42 439.213C1007.17 439.213 1008.77 439.547 1010.21 440.215C1011.66 440.883 1012.86 441.814 1013.82 443.01C1014.79 444.205 1015.44 445.605 1015.75 447.211L1015.79 447.387H1012.59L1012.46 447C1012.14 445.969 1011.64 445.096 1010.99 444.381C1010.34 443.654 1009.55 443.098 1008.62 442.711C1007.68 442.324 1006.61 442.131 1005.42 442.131C1003.73 442.131 1002.26 442.553 1001 443.396C999.762 444.229 998.795 445.406 998.104 446.93C997.424 448.441 997.084 450.229 997.084 452.291V452.309C997.084 454.359 997.424 456.152 998.104 457.688C998.795 459.211 999.768 460.395 1001.02 461.238C1002.28 462.082 1003.74 462.504 1005.42 462.504C1006.6 462.504 1007.65 462.311 1008.58 461.924C1009.52 461.537 1010.32 460.969 1010.99 460.219C1011.66 459.457 1012.17 458.52 1012.54 457.406L1012.59 457.248H1015.79L1015.75 457.424C1015.44 459.041 1014.8 460.453 1013.84 461.66C1012.88 462.855 1011.67 463.781 1010.23 464.438C1008.79 465.094 1007.19 465.422 1005.42 465.422ZM1026.63 465.352C1024.95 465.352 1023.46 464.965 1022.19 464.191C1020.92 463.418 1019.93 462.322 1019.21 460.904C1018.51 459.475 1018.16 457.793 1018.16 455.859V455.824C1018.16 453.879 1018.51 452.203 1019.21 450.797C1019.93 449.379 1020.92 448.289 1022.19 447.527C1023.46 446.754 1024.94 446.367 1026.62 446.367C1028.3 446.367 1029.78 446.754 1031.04 447.527C1032.32 448.289 1033.31 449.379 1034.02 450.797C1034.73 452.203 1035.09 453.879 1035.09 455.824V455.859C1035.09 457.805 1034.73 459.486 1034.02 460.904C1033.31 462.322 1032.33 463.418 1031.06 464.191C1029.8 464.965 1028.32 465.352 1026.63 465.352ZM1026.65 462.645C1027.73 462.645 1028.66 462.381 1029.45 461.854C1030.24 461.314 1030.86 460.541 1031.29 459.533C1031.74 458.514 1031.96 457.289 1031.96 455.859V455.824C1031.96 454.395 1031.74 453.176 1031.29 452.168C1030.86 451.16 1030.24 450.393 1029.43 449.865C1028.63 449.338 1027.69 449.074 1026.62 449.074C1025.56 449.074 1024.63 449.344 1023.82 449.883C1023.02 450.41 1022.4 451.178 1021.96 452.186C1021.51 453.182 1021.29 454.395 1021.29 455.824V455.859C1021.29 457.289 1021.51 458.514 1021.96 459.533C1022.4 460.541 1023.02 461.314 1023.82 461.854C1024.63 462.381 1025.57 462.645 1026.65 462.645ZM1039.17 465V449.25H1036.62V446.719H1039.17V444.469C1039.17 443.297 1039.35 442.33 1039.71 441.568C1040.09 440.795 1040.64 440.221 1041.38 439.846C1042.12 439.471 1043.05 439.283 1044.18 439.283C1044.52 439.283 1044.86 439.295 1045.2 439.318C1045.54 439.342 1045.82 439.371 1046.04 439.406V441.885C1045.85 441.861 1045.64 441.844 1045.41 441.832C1045.18 441.82 1044.96 441.814 1044.72 441.814C1043.88 441.814 1043.24 442.037 1042.82 442.482C1042.4 442.916 1042.19 443.584 1042.19 444.486V446.719H1045.95V449.25H1042.22V465H1039.17ZM1050.1 465V449.25H1047.55V446.719H1050.1V444.469C1050.1 443.297 1050.28 442.33 1050.64 441.568C1051.02 440.795 1051.58 440.221 1052.31 439.846C1053.05 439.471 1053.98 439.283 1055.11 439.283C1055.45 439.283 1055.79 439.295 1056.13 439.318C1056.47 439.342 1056.75 439.371 1056.97 439.406V441.885C1056.79 441.861 1056.57 441.844 1056.34 441.832C1056.12 441.82 1055.89 441.814 1055.65 441.814C1054.81 441.814 1054.18 442.037 1053.76 442.482C1053.33 442.916 1053.12 443.584 1053.12 444.486V446.719H1056.88V449.25H1053.16V465H1050.1ZM1065.81 465.352C1064.07 465.352 1062.56 464.965 1061.3 464.191C1060.04 463.418 1059.08 462.328 1058.4 460.922C1057.73 459.504 1057.39 457.84 1057.39 455.93V455.912C1057.39 454.025 1057.73 452.367 1058.41 450.938C1059.09 449.496 1060.05 448.377 1061.28 447.58C1062.51 446.771 1063.96 446.367 1065.62 446.367C1067.29 446.367 1068.71 446.754 1069.91 447.527C1071.12 448.289 1072.04 449.361 1072.69 450.744C1073.33 452.127 1073.65 453.732 1073.65 455.561V456.686H1058.92V454.295H1072.14L1070.6 456.51V455.332C1070.6 453.914 1070.38 452.742 1069.95 451.816C1069.52 450.891 1068.94 450.205 1068.19 449.76C1067.44 449.303 1066.58 449.074 1065.6 449.074C1064.63 449.074 1063.76 449.314 1062.98 449.795C1062.21 450.264 1061.6 450.967 1061.16 451.904C1060.71 452.83 1060.49 453.973 1060.49 455.332V456.51C1060.49 457.799 1060.71 458.9 1061.14 459.814C1061.58 460.729 1062.21 461.432 1063.02 461.924C1063.83 462.404 1064.78 462.645 1065.88 462.645C1066.66 462.645 1067.35 462.527 1067.96 462.293C1068.57 462.059 1069.08 461.736 1069.49 461.326C1069.9 460.916 1070.19 460.447 1070.37 459.92L1070.42 459.762H1073.43L1073.39 459.938C1073.24 460.688 1072.95 461.391 1072.51 462.047C1072.09 462.703 1071.54 463.283 1070.88 463.787C1070.21 464.279 1069.45 464.666 1068.59 464.947C1067.74 465.217 1066.81 465.352 1065.81 465.352ZM1084.27 465.352C1082.53 465.352 1081.02 464.965 1079.75 464.191C1078.5 463.418 1077.53 462.328 1076.85 460.922C1076.19 459.504 1075.85 457.84 1075.85 455.93V455.912C1075.85 454.025 1076.19 452.367 1076.87 450.938C1077.55 449.496 1078.51 448.377 1079.74 447.58C1080.97 446.771 1082.41 446.367 1084.08 446.367C1085.74 446.367 1087.17 446.754 1088.37 447.527C1089.57 448.289 1090.5 449.361 1091.14 450.744C1091.79 452.127 1092.11 453.732 1092.11 455.561V456.686H1077.38V454.295H1090.6L1089.05 456.51V455.332C1089.05 453.914 1088.84 452.742 1088.4 451.816C1087.98 450.891 1087.39 450.205 1086.64 449.76C1085.89 449.303 1085.03 449.074 1084.06 449.074C1083.09 449.074 1082.21 449.314 1081.44 449.795C1080.67 450.264 1080.06 450.967 1079.61 451.904C1079.17 452.83 1078.95 453.973 1078.95 455.332V456.51C1078.95 457.799 1079.16 458.9 1079.6 459.814C1080.04 460.729 1080.67 461.432 1081.48 461.924C1082.29 462.404 1083.24 462.645 1084.34 462.645C1085.12 462.645 1085.81 462.527 1086.42 462.293C1087.03 462.059 1087.54 461.736 1087.95 461.326C1088.36 460.916 1088.65 460.447 1088.82 459.92L1088.88 459.762H1091.88L1091.85 459.938C1091.7 460.688 1091.4 461.391 1090.97 462.047C1090.55 462.703 1090 463.283 1089.33 463.787C1088.67 464.279 1087.9 464.666 1087.05 464.947C1086.19 465.217 1085.27 465.352 1084.27 465.352Z" fill="#937F62"/>
<rect x="40" y="344" width="1252" height="629" fill="url(#paint0_linear_788_1664)"/>
<circle cx="943" cy="82" r="32" fill="#034951"/>
<path d="M937.592 73.152V90H933.488V73.152H937.592ZM949.158 90L945.654 83.64H944.67V90H940.566V73.152H947.454C948.782 73.152 949.91 73.384 950.838 73.848C951.782 74.312 952.486 74.952 952.95 75.768C953.414 76.568 953.646 77.464 953.646 78.456C953.646 79.576 953.326 80.576 952.686 81.456C952.062 82.336 951.134 82.96 949.902 83.328L953.79 90H949.158ZM944.67 80.736H947.214C947.966 80.736 948.526 80.552 948.894 80.184C949.278 79.816 949.47 79.296 949.47 78.624C949.47 77.984 949.278 77.48 948.894 77.112C948.526 76.744 947.966 76.56 947.214 76.56H944.67V80.736Z" fill="white"/>
<rect x="836" y="227" width="75" height="71" rx="12" fill="#034951"/>
<path fill-rule="evenodd" clip-rule="evenodd" d="M879.426 266.708C882.4 262.888 882.131 257.363 878.62 253.852C874.818 250.049 868.654 250.049 864.852 253.852C861.049 257.654 861.049 263.818 864.852 267.62C868.363 271.131 873.889 271.4 877.708 268.426C877.724 268.444 877.742 268.463 877.759 268.48L882.923 273.643C883.398 274.119 884.168 274.119 884.644 273.643C885.119 273.168 885.119 272.398 884.644 271.922L879.48 266.759C879.463 266.742 879.444 266.724 879.426 266.708ZM876.899 255.573C879.75 258.424 879.75 263.047 876.899 265.899C874.047 268.75 869.424 268.75 866.573 265.899C863.721 263.047 863.721 258.424 866.573 255.573C869.424 252.721 874.047 252.721 876.899 255.573Z" fill="white" stroke="white"/>
<defs>
<filter id="filter0_d_788_1664" x="77" y="361" width="536" height="180" filterUnits="userSpaceOnUse" color-interpolation-filters="sRGB">
<feFlood flood-opacity="0" result="BackgroundImageFix"/>
<feColorMatrix in="SourceAlpha" type="matrix" values="0 0 0 0 0 0 0 0 0 0 0 0 0 0 0 0 0 0 127 0" result="hardAlpha"/>
<feOffset/>
<feGaussianBlur stdDeviation="20"/>
<feComposite in2="hardAlpha" operator="out"/>
<feColorMatrix type="matrix" values="0 0 0 0 0 0 0 0 0 0 0 0 0 0 0 0 0 0 0.1 0"/>
<feBlend mode="normal" in2="BackgroundImageFix" result="effect1_dropShadow_788_1664"/>
<feBlend mode="normal" in="SourceGraphic" in2="effect1_dropShadow_788_1664" result="shape"/>
</filter>
<filter id="filter1_d_788_1664" x="0" y="680" width="536" height="180" filterUnits="userSpaceOnUse" color-interpolation-filters="sRGB">
<feFlood flood-opacity="0" result="BackgroundImageFix"/>
<feColorMatrix in="SourceAlpha" type="matrix" values="0 0 0 0 0 0 0 0 0 0 0 0 0 0 0 0 0 0 127 0" result="hardAlpha"/>
<feOffset/>
<feGaussianBlur stdDeviation="20"/>
<feComposite in2="hardAlpha" operator="out"/>
<feColorMatrix type="matrix" values="0 0 0 0 0 0 0 0 0 0 0 0 0 0 0 0 0 0 0.1 0"/>
<feBlend mode="normal" in2="BackgroundImageFix" result="effect1_dropShadow_788_1664"/>
<feBlend mode="normal" in="SourceGraphic" in2="effect1_dropShadow_788_1664" result="shape"/>
</filter>
<filter id="filter2_d_788_1664" x="636" y="582" width="536" height="180" filterUnits="userSpaceOnUse" color-interpolation-filters="sRGB">
<feFlood flood-opacity="0" result="BackgroundImageFix"/>
<feColorMatrix in="SourceAlpha" type="matrix" values="0 0 0 0 0 0 0 0 0 0 0 0 0 0 0 0 0 0 127 0" result="hardAlpha"/>
<feOffset/>
<feGaussianBlur stdDeviation="20"/>
<feComposite in2="hardAlpha" operator="out"/>
<feColorMatrix type="matrix" values="0 0 0 0 0 0 0 0 0 0 0 0 0 0 0 0 0 0 0.1 0"/>
<feBlend mode="normal" in2="BackgroundImageFix" result="effect1_dropShadow_788_1664"/>
<feBlend mode="normal" in="SourceGraphic" in2="effect1_dropShadow_788_1664" result="shape"/>
</filter>
<filter id="filter3_d_788_1664" x="796" y="361" width="536" height="180" filterUnits="userSpaceOnUse" color-interpolation-filters="sRGB">
<feFlood flood-opacity="0" result="BackgroundImageFix"/>
<feColorMatrix in="SourceAlpha" type="matrix" values="0 0 0 0 0 0 0 0 0 0 0 0 0 0 0 0 0 0 127 0" result="hardAlpha"/>
<feOffset/>
<feGaussianBlur stdDeviation="20"/>
<feComposite in2="hardAlpha" operator="out"/>
<feColorMatrix type="matrix" values="0 0 0 0 0 0 0 0 0 0 0 0 0 0 0 0 0 0 0.1 0"/>
<feBlend mode="normal" in2="BackgroundImageFix" result="effect1_dropShadow_788_1664"/>
<feBlend mode="normal" in="SourceGraphic" in2="effect1_dropShadow_788_1664" result="shape"/>
</filter>
<linearGradient id="paint0_linear_788_1664" x1="666" y1="344" x2="666" y2="973" gradientUnits="userSpaceOnUse">
<stop stop-color="#FDFFEF" stop-opacity="0"/>
<stop offset="1" stop-color="#FDFFEF"/>
</linearGradient>
</defs>
</svg>
